<svg xmlns:xlink="http://www.w3.org/1999/xlink" xmlns="http://www.w3.org/2000/svg" version="1.1" viewBox="0.0 0.0 100.0 100.0" fill="none" stroke="none" stroke-linecap="square" stroke-miterlimit="10"><clipPath id="p.0"><path d="m0 0l100.0 0l0 100.0l-100.0 0l0 -100.0z" clip-rule="nonzero"/></clipPath><g clip-path="url(#p.0)"><path fill="#ffffff00" d="m0 0l100.0 0l0 100.0l-100.0 0z" fill-rule="evenodd"/><path xmlns="http://www.w3.org/2000/svg" mask="url(#mask1)" fill="#999999" d="m10.086472 49.996136l0 0c0 -22.021812 17.880407 -39.874016 39.937008 -39.874016l0 0c10.591953 0 20.750088 4.201 28.239727 11.678828c7.489647 7.477829 11.697281 17.61994 11.697281 28.195189l0 0c0 22.021809 -17.88041 39.874012 -39.937008 39.874012l0 0c-22.0566 0 -39.937008 -17.852203 -39.937008 -39.874012z" fill-rule="evenodd"/><mask id="mask1"><path xmlns="http://www.w3.org/2000/svg" fill="#ffffff" d="m0 0l100.0 0l0 100.0l-100.0 0z" fill-rule="evenodd"/><path xmlns="http://www.w3.org/2000/svg" fill="black" d="m25.916111 45.69839l19.78228 0l0 -19.78228l8.603218 0l0 19.78228l19.782276 0l0 8.603218l-19.782276 0l0 19.782276l-8.603218 0l0 -19.782276l-19.78228 0z" fill-rule="evenodd"/></mask></g></svg>