<svg width="100" height="100" viewBox="0 0 100 100" fill="none" xmlns="http://www.w3.org/2000/svg">
<path d="M89.5833 28.854L80.7292 30.6248L71.1458 28.854L69.0625 19.0623L71.1458 10.4165L89.5833 28.854Z" fill="#EA4335"/>
<path d="M71.1457 28.854V57.1873H38.3332L28.854 66.6665L27.604 71.0415L28.854 75.6248V86.5623C28.854 89.1665 32.0832 90.5207 33.9582 88.6457L46.979 75.6248H84.1665C87.1873 75.6248 89.5832 73.229 89.5832 70.2082V28.854H71.1457Z" fill="#34A853"/>
<path d="M28.854 57.1872L18.9582 58.5413L10.4165 57.1872V28.8538L19.6873 27.3955L28.854 28.8538V57.1872Z" fill="#4285F4"/>
<path d="M28.854 28.854H10.4165V15.8332C10.4165 12.8123 12.8123 10.4165 15.8332 10.4165H28.854L30.5207 19.1665L28.854 28.854Z" fill="#1967D2"/>
<path d="M28.854 57.1875V75.625H15.8332C12.8123 75.625 10.4165 73.2292 10.4165 70.2083V57.1875H28.854Z" fill="#188038"/>
<path d="M71.1457 10.4165H28.854V28.854H71.1457V10.4165Z" fill="#FBBC04"/>
</svg>
