<svg version="1.1" viewBox="0.0 0.0 300.0 300.0" fill="none" stroke="none" stroke-linecap="square" stroke-miterlimit="10" xmlns:xlink="http://www.w3.org/1999/xlink" xmlns="http://www.w3.org/2000/svg"><clipPath id="p.0"><path d="m0 0l300.0 0l0 300.0l-300.0 0l0 -300.0z" clip-rule="nonzero"/></clipPath><g clip-path="url(#p.0)"><path fill="#ffffff" d="m0 0l300.0 0l0 300.0l-300.0 0z" fill-rule="evenodd"/><path fill="#d9d9d9" d="m46.377953 98.18898l155.43307 0l0 155.43306l-155.43307 0z" fill-rule="evenodd"/><path fill="#adadad" d="m201.81102 98.18898l51.81102 -51.811028l0 155.43307l-51.81102 51.81102z" fill-rule="evenodd"/><path fill="#e0e0e0" d="m46.377953 98.18898l51.811028 -51.811028l155.43306 0l-51.81102 51.811028z" fill-rule="evenodd"/><path fill="#000000" fill-opacity="0.0" d="m46.377953 98.18898l51.811028 -51.811028l155.43306 0l0 155.43307l-51.81102 51.81102l-155.43307 0zm0 0l155.43307 0l51.81102 -51.811028m-51.81102 51.811028l0 155.43306" fill-rule="evenodd"/><path stroke="#cccccc" stroke-width="1.0" stroke-linejoin="round" stroke-linecap="butt" d="m46.377953 98.18898l51.811028 -51.811028l155.43306 0l0 155.43307l-51.81102 51.81102l-155.43307 0zm0 0l155.43307 0l51.81102 -51.811028m-51.81102 51.811028l0 155.43306" fill-rule="evenodd"/></g></svg>