<svg version="1.1" viewBox="0.0 0.0 300.0 300.0" fill="none" stroke="none" stroke-linecap="square" stroke-miterlimit="10" xmlns:xlink="http://www.w3.org/1999/xlink" xmlns="http://www.w3.org/2000/svg"><clipPath id="p.0"><path d="m0 0l300.0 0l0 300.0l-300.0 0l0 -300.0z" clip-rule="nonzero"/></clipPath><g clip-path="url(#p.0)"><path fill="#ffffff" d="m0 0l300.0 0l0 300.0l-300.0 0z" fill-rule="evenodd"/><path fill="#a4c2f4" d="m228.3307 97.50382l-20.532043 167.4372l-115.59732 0.023254395l-20.532051 -167.42896z" fill-rule="evenodd"/><path fill="#a4c2f4" d="m141.74284 29.715076l16.514313 0c0.8590088 0 1.6828308 0.34124184 2.2902527 0.9486542c0.6074066 0.60741425 0.9486542 1.4312439 0.9486542 2.2902565l0 16.19416c0 1.0681152E-4 -9.1552734E-5 1.9073486E-4 -1.9836426E-4 1.9073486E-4l-22.991928 -1.9073486E-4l0 0c-1.0681152E-4 0 -1.9836426E-4 -8.773804E-5 -1.9836426E-4 -1.9073486E-4l1.9836426E-4 -16.19397l0 0c0 -1.7888012 1.4501038 -3.2389107 3.2389069 -3.2389107z" fill-rule="evenodd"/><path fill="#a4c2f4" d="m71.66929 87.98688l2.7559052 -11.023621l151.1496 0l2.7559052 11.023621z" fill-rule="evenodd"/><path fill="#a4c2f4" d="m84.8041 82.125175c4.70681 -24.918083 32.18344 -43.459587 64.70089 -43.660805c32.517456 -0.20121765 60.35054 17.998035 65.54027 42.85488z" fill-rule="evenodd"/><path fill="#ffffff" d="m100.91338 123.18321l11.874016 -1.1023636l10.708664 122.11024l-11.874016 1.102356z" fill-rule="evenodd"/><path fill="#ffffff" d="m144.04724 123.633545l11.905518 0l0 122.58267l-11.905518 0z" fill-rule="evenodd"/><path fill="#ffffff" d="m187.2126 123.34759l11.874008 1.102356l-10.708649 122.11024l-11.874023 -1.102356z" fill-rule="evenodd"/></g></svg>